<?xml version="1.0" encoding="UTF-8" standalone="no"?>
<!DOCTYPE svg PUBLIC "-//W3C//DTD SVG 1.1//EN" "http://www.w3.org/Graphics/SVG/1.1/DTD/svg11.dtd">
<svg xmlns="http://www.w3.org/2000/svg" version="1.1" viewBox="0.00 0.00 512.00 512.00" width="128" height="128">
<path stroke="#81b6ef" stroke-width="2.00" fill="none" stroke-linecap="butt" vector-effect="non-scaling-stroke" d="
  M 217.99 215.05
  Q 205.56 272.10 199.23 301.01
  Q 194.31 323.49 193.50 343.25
  Q 192.93 357.27 196.56 369.17
  C 203.16 390.81 220.73 401.90 242.50 405.50
  Q 258.72 408.18 273.50 406.31
  Q 277.63 405.79 295.17 401.83
  A 0.91 0.89 -0.7 0 0 295.85 401.15
  L 305.71 355.36
  A 0.27 0.27 0.0 0 0 305.36 355.05
  Q 296.61 358.32 286.49 359.66
  Q 274.09 361.29 267.22 358.65
  Q 256.19 354.39 254.06 341.72
  Q 253.43 338.00 254.09 331.23
  Q 254.89 322.93 255.36 320.78
  Q 277.10 221.08 278.40 215.09
  A 0.72 0.71 6.0 0 1 279.10 214.53
  L 332.01 214.53
  A 0.46 0.46 0.0 0 0 332.46 214.17
  L 341.76 170.93
  A 0.44 0.43 6.3 0 0 341.33 170.40
  L 288.41 170.40
  A 0.35 0.34 -83.8 0 1 288.08 169.98
  L 302.68 102.14
  A 0.34 0.33 -2.6 0 0 302.25 101.75
  L 238.38 122.62
  A 0.94 0.93 86.8 0 0 237.76 123.32
  L 227.82 169.48
  A 1.18 1.18 0.0 0 1 226.67 170.41
  L 184.57 170.41
  A 0.66 0.65 6.0 0 0 183.93 170.92
  L 174.63 214.12
  A 0.35 0.35 0.0 0 0 174.97 214.54
  L 217.58 214.54
  A 0.42 0.42 0.0 0 1 217.99 215.05"
/>
<path fill="#026cdf" d="
  M 508.17 256.00
  A 252.81 252.81 0.0 0 1 255.36 508.81
  A 252.81 252.81 0.0 0 1 2.55 256.00
  A 252.81 252.81 0.0 0 1 255.36 3.19
  A 252.81 252.81 0.0 0 1 508.17 256.00
  Z
  M 217.99 215.05
  Q 205.56 272.10 199.23 301.01
  Q 194.31 323.49 193.50 343.25
  Q 192.93 357.27 196.56 369.17
  C 203.16 390.81 220.73 401.90 242.50 405.50
  Q 258.72 408.18 273.50 406.31
  Q 277.63 405.79 295.17 401.83
  A 0.91 0.89 -0.7 0 0 295.85 401.15
  L 305.71 355.36
  A 0.27 0.27 0.0 0 0 305.36 355.05
  Q 296.61 358.32 286.49 359.66
  Q 274.09 361.29 267.22 358.65
  Q 256.19 354.39 254.06 341.72
  Q 253.43 338.00 254.09 331.23
  Q 254.89 322.93 255.36 320.78
  Q 277.10 221.08 278.40 215.09
  A 0.72 0.71 6.0 0 1 279.10 214.53
  L 332.01 214.53
  A 0.46 0.46 0.0 0 0 332.46 214.17
  L 341.76 170.93
  A 0.44 0.43 6.3 0 0 341.33 170.40
  L 288.41 170.40
  A 0.35 0.34 -83.8 0 1 288.08 169.98
  L 302.68 102.14
  A 0.34 0.33 -2.6 0 0 302.25 101.75
  L 238.38 122.62
  A 0.94 0.93 86.8 0 0 237.76 123.32
  L 227.82 169.48
  A 1.18 1.18 0.0 0 1 226.67 170.41
  L 184.57 170.41
  A 0.66 0.65 6.0 0 0 183.93 170.92
  L 174.63 214.12
  A 0.35 0.35 0.0 0 0 174.97 214.54
  L 217.58 214.54
  A 0.42 0.42 0.0 0 1 217.99 215.05
  Z"
/>
<path fill="#ffffff" d="
  M 217.99 215.05
  A 0.42 0.42 0.0 0 0 217.58 214.54
  L 174.97 214.54
  A 0.35 0.35 0.0 0 1 174.63 214.12
  L 183.93 170.92
  A 0.66 0.65 6.0 0 1 184.57 170.41
  L 226.67 170.41
  A 1.18 1.18 0.0 0 0 227.82 169.48
  L 237.76 123.32
  A 0.94 0.93 86.8 0 1 238.38 122.62
  L 302.25 101.75
  A 0.34 0.33 -2.6 0 1 302.68 102.14
  L 288.08 169.98
  A 0.35 0.34 -83.8 0 0 288.41 170.40
  L 341.33 170.40
  A 0.44 0.43 6.3 0 1 341.76 170.93
  L 332.46 214.17
  A 0.46 0.46 0.0 0 1 332.01 214.53
  L 279.10 214.53
  A 0.72 0.71 6.0 0 0 278.40 215.09
  Q 277.10 221.08 255.36 320.78
  Q 254.89 322.93 254.09 331.23
  Q 253.43 338.00 254.06 341.72
  Q 256.19 354.39 267.22 358.65
  Q 274.09 361.29 286.49 359.66
  Q 296.61 358.32 305.36 355.05
  A 0.27 0.27 0.0 0 1 305.71 355.36
  L 295.85 401.15
  A 0.91 0.89 -0.7 0 1 295.17 401.83
  Q 277.63 405.79 273.50 406.31
  Q 258.72 408.18 242.50 405.50
  C 220.73 401.90 203.16 390.81 196.56 369.17
  Q 192.93 357.27 193.50 343.25
  Q 194.31 323.49 199.23 301.01
  Q 205.56 272.10 217.99 215.05
  Z"
/>
</svg>